<svg width="18" height="18" viewBox="0 0 18 18" fill="none" xmlns="http://www.w3.org/2000/svg">
<path id="Vector" d="M9.25063 0C11.5714 0 13.7972 0.921938 15.4383 2.563C17.0793 4.20406 18.0012 6.42981 18.0012 8.75062C18.0012 11.0714 17.0793 13.2972 15.4383 14.9383C13.7972 16.5793 11.5714 17.5013 9.25063 17.5013C6.92982 17.5013 4.70406 16.5793 3.063 14.9383C1.42194 13.2972 0.5 11.0714 0.5 8.75062C0.5 6.42981 1.42194 4.20406 3.063 2.563C4.70406 0.921938 6.92982 0 9.25063 0ZM10.5631 5.3725C11.2131 5.3725 11.7406 4.92125 11.7406 4.2525C11.7406 3.58375 11.2119 3.1325 10.5631 3.1325C9.91313 3.1325 9.38812 3.58375 9.38812 4.2525C9.38812 4.92125 9.91313 5.3725 10.5631 5.3725ZM10.7919 12.4062C10.7919 12.2725 10.8381 11.925 10.8119 11.7275L9.78438 12.91C9.57188 13.1337 9.30562 13.2887 9.18062 13.2475C9.12392 13.2266 9.07652 13.1862 9.04696 13.1335C9.0174 13.0808 9.00762 13.0193 9.01937 12.96L10.7319 7.55C10.8719 6.86375 10.4869 6.2375 9.67063 6.1575C8.80938 6.1575 7.54187 7.03125 6.77063 8.14C6.77063 8.2725 6.74563 8.6025 6.77188 8.8L7.79813 7.61625C8.01062 7.395 8.25813 7.23875 8.38313 7.28125C8.44471 7.30335 8.49517 7.34872 8.52369 7.40762C8.5522 7.46651 8.55648 7.53423 8.53563 7.59625L6.83813 12.98C6.64188 13.61 7.01312 14.2275 7.91313 14.3675C9.23812 14.3675 10.0206 13.515 10.7931 12.4062H10.7919Z" fill="black"/>
</svg>
