<svg width="25" height="25" viewBox="0 0 25 25" fill="none" xmlns="http://www.w3.org/2000/svg">
<g id="mingcute:calendar-time-add-line" clip-path="url(#clip0_192_1001)">
<g id="Group">
<path id="Vector" d="M17.7083 12.5C19.0897 12.5 20.4144 13.0487 21.3912 14.0255C22.3679 15.0022 22.9167 16.327 22.9167 17.7083C22.9167 19.0897 22.3679 20.4144 21.3912 21.3912C20.4144 22.3679 19.0897 22.9167 17.7083 22.9167C16.327 22.9167 15.0022 22.3679 14.0255 21.3912C13.0487 20.4144 12.5 19.0897 12.5 17.7083C12.5 16.327 13.0487 15.0022 14.0255 14.0255C15.0022 13.0487 16.327 12.5 17.7083 12.5ZM16.6667 3.125C16.9429 3.125 17.2079 3.23475 17.4032 3.4301C17.5986 3.62545 17.7083 3.8904 17.7083 4.16667V5.20833H19.7917C20.3442 5.20833 20.8741 5.42783 21.2648 5.81853C21.6555 6.20923 21.875 6.73913 21.875 7.29167V10.4167H19.7917V7.29167H5.20833V19.7917H10.4167V21.875H5.20833C4.6558 21.875 4.12589 21.6555 3.73519 21.2648C3.34449 20.8741 3.125 20.3442 3.125 19.7917V7.29167C3.125 6.73913 3.34449 6.20923 3.73519 5.81853C4.12589 5.42783 4.6558 5.20833 5.20833 5.20833H7.29167V4.16667C7.29167 3.8904 7.40141 3.62545 7.59676 3.4301C7.79211 3.23475 8.05707 3.125 8.33333 3.125C8.6096 3.125 8.87455 3.23475 9.0699 3.4301C9.26525 3.62545 9.375 3.8904 9.375 4.16667V5.20833H15.625V4.16667C15.625 3.8904 15.7347 3.62545 15.9301 3.4301C16.1254 3.23475 16.3904 3.125 16.6667 3.125ZM17.7083 14.5833C16.8795 14.5833 16.0847 14.9126 15.4986 15.4986C14.9126 16.0847 14.5833 16.8795 14.5833 17.7083C14.5833 18.5371 14.9126 19.332 15.4986 19.918C16.0847 20.5041 16.8795 20.8333 17.7083 20.8333C18.5371 20.8333 19.332 20.5041 19.918 19.918C20.5041 19.332 20.8333 18.5371 20.8333 17.7083C20.8333 16.8795 20.5041 16.0847 19.918 15.4986C19.332 14.9126 18.5371 14.5833 17.7083 14.5833ZM17.7083 15.1042C17.9846 15.1042 18.2496 15.2139 18.4449 15.4093C18.6403 15.6046 18.75 15.8696 18.75 16.1458V16.6667C19.0263 16.6667 19.2912 16.7764 19.4866 16.9718C19.6819 17.1671 19.7917 17.4321 19.7917 17.7083C19.7917 17.9846 19.6819 18.2496 19.4866 18.4449C19.2912 18.6403 19.0263 18.75 18.75 18.75H17.7083C17.4321 18.75 17.1671 18.6403 16.9718 18.4449C16.7764 18.2496 16.6667 17.9846 16.6667 17.7083V16.1458C16.6667 15.8696 16.7764 15.6046 16.9718 15.4093C17.1671 15.2139 17.4321 15.1042 17.7083 15.1042ZM8.85417 14.5833C9.11967 14.5836 9.37503 14.6853 9.56809 14.8675C9.76115 15.0498 9.87733 15.2989 9.89289 15.564C9.90845 15.829 9.82221 16.09 9.65181 16.2936C9.4814 16.4972 9.23968 16.628 8.97604 16.6594L8.85417 16.6667H8.33333C8.06783 16.6664 7.81247 16.5647 7.61941 16.3824C7.42635 16.2002 7.31017 15.9511 7.29461 15.686C7.27905 15.421 7.36529 15.16 7.53569 14.9564C7.7061 14.7528 7.94782 14.622 8.21146 14.5906L8.33333 14.5833H8.85417ZM11.4583 10.4167C11.7346 10.4167 11.9996 10.5264 12.1949 10.7218C12.3903 10.9171 12.5 11.1821 12.5 11.4583C12.5 11.7346 12.3903 11.9996 12.1949 12.1949C11.9996 12.3903 11.7346 12.5 11.4583 12.5H8.33333C8.05707 12.5 7.79211 12.3903 7.59676 12.1949C7.40141 11.9996 7.29167 11.7346 7.29167 11.4583C7.29167 11.1821 7.40141 10.9171 7.59676 10.7218C7.79211 10.5264 8.05707 10.4167 8.33333 10.4167H11.4583Z" fill="black"/>
</g>
</g>
<defs>
<clipPath id="clip0_192_1001">
<rect width="25" height="25" fill="white"/>
</clipPath>
</defs>
</svg>
